<?xml version="1.0" encoding="UTF-8"?>
<svg id="Layer_1" data-name="Layer 1" xmlns="http://www.w3.org/2000/svg" viewBox="0 0 1000 1000">
  <defs>
    <style>
      .cls-1 {
        fill: #9bcad7;
        stroke-width: 0px;
      }
    </style>
  </defs>
  <path class="cls-1" d="M553.81,413.92c-13.26,0-22.48-1.76-27.62-5.29-4.87-3.52-7.3-8.55-7.3-15.05,0-5.97,2.43-10.59,7.3-13.84,5.14-3.26,14.35-4.88,27.62-4.88s21.51,1.62,26.38,4.88c5.15,3.25,7.71,7.87,7.71,13.84,0,6.5-2.56,11.53-7.71,15.05-4.87,3.53-13.66,5.29-26.38,5.29Z"/>
  <path class="cls-1" d="M669.94,354.9c7.04,9.22,10.56,21.71,10.56,37.45v4.06c0,15.47-3.52,27.95-10.56,37.45-6.77,9.22-16.24,15.87-28.43,19.95-12.18,4.07-26.25,6.11-42.22,6.11s-29.65-1.9-41.82-5.69c-12.19-4.07-21.66-10.59-28.43-19.55,7.58,1.63,17.06,2.45,28.43,2.45,25.72,0,43.71-3.26,54-9.78,10.29-6.5,15.43-17.5,15.43-32.97,0-14.39-5.14-25.11-15.43-32.16-10.29-7.06-28.28-10.59-54-10.59-11.37,0-20.85.82-28.43,2.44,6.77-8.96,16.24-15.33,28.43-19.13,12.18-4.07,26.12-6.1,41.82-6.1s30.05,2.03,42.22,6.1c12.19,4.06,21.66,10.71,28.43,19.95Z"/>
  <path class="cls-1" d="M376.5,594.04c-11.37-5.97-25.31-8.96-41.81-8.96-23.29,0-42.24,5.15-56.85,15.46-14.34,10.31-21.79,24.29-22.33,41.94h46.29c.82-8.69,4.47-15.47,10.97-20.36,6.77-4.88,17.46-7.33,32.08-7.33,13.26,0,23.14,2.31,29.65,6.92,6.76,4.88,10.15,11.13,10.15,18.73,0,8.96-3.25,15.61-9.75,19.95-6.23,4.62-15.16,7.6-26.8,8.96-11.38,1.63-24.64,2.44-39.79,2.44-11.1,0-22.33-.41-33.71-1.22-11.09-.81-19.48-2.71-25.17-5.69-11.91-5.97-17.86-19.55-17.86-40.71v-142.88c8.66,7.6,18.81,13.43,30.45,17.5,11.64,4.07,24.51,6.1,38.58,6.1h9.34c18.14,0,33.98-3.12,47.51-9.36,13.54-6.52,24.5-15.2,32.89-26.05,7.58-9.5,13-20.62,16.24-33.38,3.25-12.76,4.87-27.55,4.87-44.38s-1.62-31.61-4.87-44.37c-3.24-12.75-8.66-23.89-16.24-33.38-8.39-10.86-19.35-19.4-32.89-25.65-13.53-6.5-29.37-9.77-47.51-9.77h-8.13c-19.21,0-35.32,3.12-48.32,9.37-12.72,5.96-22.88,13.7-30.45,23.2-7.58,9.5-13.13,19.54-16.65,30.13-3.25,10.31-4.87,19.67-4.87,28.08h26.8c1.63-11.94,9.07-21.3,22.33-28.08,13.54-7.06,31.95-10.59,55.22-10.59,15.43,0,28.97,1.9,40.6,5.71,11.91,3.8,21.26,10.03,28.03,18.73,6.76,8.41,10.15,19.95,10.15,34.6v4.07c0,14.37-3.39,25.91-10.15,34.6-6.77,8.68-16.12,14.92-28.03,18.73-11.63,3.8-25.17,5.69-40.6,5.69-23.28,0-41.68-3.53-55.22-10.58-13.26-7.06-20.7-16.43-22.33-28.09h-26.8v220.22c0,21.45,2.16,37.18,6.49,47.22,4.33,10.31,9.35,17.78,15.03,22.39,8.66,7.6,20.3,12.35,34.92,14.25,14.62,2.16,30.86,3.25,48.72,3.25s33.71-1.09,48.33-3.25c14.62-1.9,26.25-6.65,34.92-14.25,5.68-4.61,10.69-10.99,15.02-19.13,4.33-7.87,6.49-18.59,6.49-32.17,0-12.75-2.97-24.29-8.92-34.6-5.96-10.03-14.62-18.05-26-24.01ZM583.8,613.8c-4.33-2.72-12.18-4.07-23.54-4.07s-19.64,1.35-23.96,4.07c-4.6,2.97-6.9,7.05-6.9,12.21,0,5.43,2.31,9.63,6.9,12.62,4.33,3.25,12.32,4.88,23.96,4.88s19.21-1.63,23.54-4.88c4.06-2.99,6.09-7.19,6.09-12.62s-2.03-9.24-6.09-12.21ZM651.21,582.45c-13.26-7.87-30.18-11.81-50.76-11.81-13.81,0-26.12,1.63-36.95,4.88-10.82,3.53-19.21,9.09-25.17,16.69,6.77-1.63,15.16-2.44,25.17-2.44,23.01,0,39.12,2.99,48.32,8.96,8.94,5.96,13.41,15.2,13.41,27.67,0,13.3-4.47,22.8-13.41,28.49-9.2,5.71-25.31,8.56-48.32,8.56-10.01,0-18.4-.82-25.17-2.44,5.96,7.59,14.35,13.02,25.17,16.27,10.83,3.53,23.14,5.29,36.95,5.29,20.58,0,37.5-4.07,50.76-12.21,12.99-8.14,19.49-22.12,19.49-41.92v-3.66c0-20.09-6.5-34.2-19.49-42.34ZM651.21,582.45c-13.26-7.87-30.18-11.81-50.76-11.81-13.81,0-26.12,1.63-36.95,4.88-10.82,3.53-19.21,9.09-25.17,16.69,6.77-1.63,15.16-2.44,25.17-2.44,23.01,0,39.12,2.99,48.32,8.96,8.94,5.96,13.41,15.2,13.41,27.67,0,13.3-4.47,22.8-13.41,28.49-9.2,5.71-25.31,8.56-48.32,8.56-10.01,0-18.4-.82-25.17-2.44,5.96,7.59,14.35,13.02,25.17,16.27,10.83,3.53,23.14,5.29,36.95,5.29,20.58,0,37.5-4.07,50.76-12.21,12.99-8.14,19.49-22.12,19.49-41.92v-3.66c0-20.09-6.5-34.2-19.49-42.34ZM583.8,613.8c-4.33-2.72-12.18-4.07-23.54-4.07s-19.64,1.35-23.96,4.07c-4.6,2.97-6.9,7.05-6.9,12.21,0,5.43,2.31,9.63,6.9,12.62,4.33,3.25,12.32,4.88,23.96,4.88s19.21-1.63,23.54-4.88c4.06-2.99,6.09-7.19,6.09-12.62s-2.03-9.24-6.09-12.21ZM376.5,594.04c-11.37-5.97-25.31-8.96-41.81-8.96-23.29,0-42.24,5.15-56.85,15.46-14.34,10.31-21.79,24.29-22.33,41.94h46.29c.82-8.69,4.47-15.47,10.97-20.36,6.77-4.88,17.46-7.33,32.08-7.33,13.26,0,23.14,2.31,29.65,6.92,6.76,4.88,10.15,11.13,10.15,18.73,0,8.96-3.25,15.61-9.75,19.95-6.23,4.62-15.16,7.6-26.8,8.96-11.38,1.63-24.64,2.44-39.79,2.44-11.1,0-22.33-.41-33.71-1.22-11.09-.81-19.48-2.71-25.17-5.69-11.91-5.97-17.86-19.55-17.86-40.71v-142.88c8.66,7.6,18.81,13.43,30.45,17.5,11.64,4.07,24.51,6.1,38.58,6.1h9.34c18.14,0,33.98-3.12,47.51-9.36,13.54-6.52,24.5-15.2,32.89-26.05,7.58-9.5,13-20.62,16.24-33.38,3.25-12.76,4.87-27.55,4.87-44.38s-1.62-31.61-4.87-44.37c-3.24-12.75-8.66-23.89-16.24-33.38-8.39-10.86-19.35-19.4-32.89-25.65-13.53-6.5-29.37-9.77-47.51-9.77h-8.13c-19.21,0-35.32,3.12-48.32,9.37-12.72,5.96-22.88,13.7-30.45,23.2-7.58,9.5-13.13,19.54-16.65,30.13-3.25,10.31-4.87,19.67-4.87,28.08h26.8c1.63-11.94,9.07-21.3,22.33-28.08,13.54-7.06,31.95-10.59,55.22-10.59,15.43,0,28.97,1.9,40.6,5.71,11.91,3.8,21.26,10.03,28.03,18.73,6.76,8.41,10.15,19.95,10.15,34.6v4.07c0,14.37-3.39,25.91-10.15,34.6-6.77,8.68-16.12,14.92-28.03,18.73-11.63,3.8-25.17,5.69-40.6,5.69-23.28,0-41.68-3.53-55.22-10.58-13.26-7.06-20.7-16.43-22.33-28.09h-26.8v220.22c0,21.45,2.16,37.18,6.49,47.22,4.33,10.31,9.35,17.78,15.03,22.39,8.66,7.6,20.3,12.35,34.92,14.25,14.62,2.16,30.86,3.25,48.72,3.25s33.71-1.09,48.33-3.25c14.62-1.9,26.25-6.65,34.92-14.25,5.68-4.61,10.69-10.99,15.02-19.13,4.33-7.87,6.49-18.59,6.49-32.17,0-12.75-2.97-24.29-8.92-34.6-5.96-10.03-14.62-18.05-26-24.01ZM376.5,594.04c-11.37-5.97-25.31-8.96-41.81-8.96-23.29,0-42.24,5.15-56.85,15.46-14.34,10.31-21.79,24.29-22.33,41.94h46.29c.82-8.69,4.47-15.47,10.97-20.36,6.77-4.88,17.46-7.33,32.08-7.33,13.26,0,23.14,2.31,29.65,6.92,6.76,4.88,10.15,11.13,10.15,18.73,0,8.96-3.25,15.61-9.75,19.95-6.23,4.62-15.16,7.6-26.8,8.96-11.38,1.63-24.64,2.44-39.79,2.44-11.1,0-22.33-.41-33.71-1.22-11.09-.81-19.48-2.71-25.17-5.69-11.91-5.97-17.86-19.55-17.86-40.71v-142.88c8.66,7.6,18.81,13.43,30.45,17.5,11.64,4.07,24.51,6.1,38.58,6.1h9.34c18.14,0,33.98-3.12,47.51-9.36,13.54-6.52,24.5-15.2,32.89-26.05,7.58-9.5,13-20.62,16.24-33.38,3.25-12.76,4.87-27.55,4.87-44.38s-1.62-31.61-4.87-44.37c-3.24-12.75-8.66-23.89-16.24-33.38-8.39-10.86-19.35-19.4-32.89-25.65-13.53-6.5-29.37-9.77-47.51-9.77h-8.13c-19.21,0-35.32,3.12-48.32,9.37-12.72,5.96-22.88,13.7-30.45,23.2-7.58,9.5-13.13,19.54-16.65,30.13-3.25,10.31-4.87,19.67-4.87,28.08h26.8c1.63-11.94,9.07-21.3,22.33-28.08,13.54-7.06,31.95-10.59,55.22-10.59,15.43,0,28.97,1.9,40.6,5.71,11.91,3.8,21.26,10.03,28.03,18.73,6.76,8.41,10.15,19.95,10.15,34.6v4.07c0,14.37-3.39,25.91-10.15,34.6-6.77,8.68-16.12,14.92-28.03,18.73-11.63,3.8-25.17,5.69-40.6,5.69-23.28,0-41.68-3.53-55.22-10.58-13.26-7.06-20.7-16.43-22.33-28.09h-26.8v220.22c0,21.45,2.16,37.18,6.49,47.22,4.33,10.31,9.35,17.78,15.03,22.39,8.66,7.6,20.3,12.35,34.92,14.25,14.62,2.16,30.86,3.25,48.72,3.25s33.71-1.09,48.33-3.25c14.62-1.9,26.25-6.65,34.92-14.25,5.68-4.61,10.69-10.99,15.02-19.13,4.33-7.87,6.49-18.59,6.49-32.17,0-12.75-2.97-24.29-8.92-34.6-5.96-10.03-14.62-18.05-26-24.01ZM583.8,613.8c-4.33-2.72-12.18-4.07-23.54-4.07s-19.64,1.35-23.96,4.07c-4.6,2.97-6.9,7.05-6.9,12.21,0,5.43,2.31,9.63,6.9,12.62,4.33,3.25,12.32,4.88,23.96,4.88s19.21-1.63,23.54-4.88c4.06-2.99,6.09-7.19,6.09-12.62s-2.03-9.24-6.09-12.21ZM651.21,582.45c-13.26-7.87-30.18-11.81-50.76-11.81-13.81,0-26.12,1.63-36.95,4.88-10.82,3.53-19.21,9.09-25.17,16.69,6.77-1.63,15.16-2.44,25.17-2.44,23.01,0,39.12,2.99,48.32,8.96,8.94,5.96,13.41,15.2,13.41,27.67,0,13.3-4.47,22.8-13.41,28.49-9.2,5.71-25.31,8.56-48.32,8.56-10.01,0-18.4-.82-25.17-2.44,5.96,7.59,14.35,13.02,25.17,16.27,10.83,3.53,23.14,5.29,36.95,5.29,20.58,0,37.5-4.07,50.76-12.21,12.99-8.14,19.49-22.12,19.49-41.92v-3.66c0-20.09-6.5-34.2-19.49-42.34ZM651.21,582.45c-13.26-7.87-30.18-11.81-50.76-11.81-13.81,0-26.12,1.63-36.95,4.88-10.82,3.53-19.21,9.09-25.17,16.69,6.77-1.63,15.16-2.44,25.17-2.44,23.01,0,39.12,2.99,48.32,8.96,8.94,5.96,13.41,15.2,13.41,27.67,0,13.3-4.47,22.8-13.41,28.49-9.2,5.71-25.31,8.56-48.32,8.56-10.01,0-18.4-.82-25.17-2.44,5.96,7.59,14.35,13.02,25.17,16.27,10.83,3.53,23.14,5.29,36.95,5.29,20.58,0,37.5-4.07,50.76-12.21,12.99-8.14,19.49-22.12,19.49-41.92v-3.66c0-20.09-6.5-34.2-19.49-42.34ZM583.8,613.8c-4.33-2.72-12.18-4.07-23.54-4.07s-19.64,1.35-23.96,4.07c-4.6,2.97-6.9,7.05-6.9,12.21,0,5.43,2.31,9.63,6.9,12.62,4.33,3.25,12.32,4.88,23.96,4.88s19.21-1.63,23.54-4.88c4.06-2.99,6.09-7.19,6.09-12.62s-2.03-9.24-6.09-12.21ZM376.5,594.04c-11.37-5.97-25.31-8.96-41.81-8.96-23.29,0-42.24,5.15-56.85,15.46-14.34,10.31-21.79,24.29-22.33,41.94h46.29c.82-8.69,4.47-15.47,10.97-20.36,6.77-4.88,17.46-7.33,32.08-7.33,13.26,0,23.14,2.31,29.65,6.92,6.76,4.88,10.15,11.13,10.15,18.73,0,8.96-3.25,15.61-9.75,19.95-6.23,4.62-15.16,7.6-26.8,8.96-11.38,1.63-24.64,2.44-39.79,2.44-11.1,0-22.33-.41-33.71-1.22-11.09-.81-19.48-2.71-25.17-5.69-11.91-5.97-17.86-19.55-17.86-40.71v-142.88c8.66,7.6,18.81,13.43,30.45,17.5,11.64,4.07,24.51,6.1,38.58,6.1h9.34c18.14,0,33.98-3.12,47.51-9.36,13.54-6.52,24.5-15.2,32.89-26.05,7.58-9.5,13-20.62,16.24-33.38,3.25-12.76,4.87-27.55,4.87-44.38s-1.62-31.61-4.87-44.37c-3.24-12.75-8.66-23.89-16.24-33.38-8.39-10.86-19.35-19.4-32.89-25.65-13.53-6.5-29.37-9.77-47.51-9.77h-8.13c-19.21,0-35.32,3.12-48.32,9.37-12.72,5.96-22.88,13.7-30.45,23.2-7.58,9.5-13.13,19.54-16.65,30.13-3.25,10.31-4.87,19.67-4.87,28.08h26.8c1.63-11.94,9.07-21.3,22.33-28.08,13.54-7.06,31.95-10.59,55.22-10.59,15.43,0,28.97,1.9,40.6,5.71,11.91,3.8,21.26,10.03,28.03,18.73,6.76,8.41,10.15,19.95,10.15,34.6v4.07c0,14.37-3.39,25.91-10.15,34.6-6.77,8.68-16.12,14.92-28.03,18.73-11.63,3.8-25.17,5.69-40.6,5.69-23.28,0-41.68-3.53-55.22-10.58-13.26-7.06-20.7-16.43-22.33-28.09h-26.8v220.22c0,21.45,2.16,37.18,6.49,47.22,4.33,10.31,9.35,17.78,15.03,22.39,8.66,7.6,20.3,12.35,34.92,14.25,14.62,2.16,30.86,3.25,48.72,3.25s33.71-1.09,48.33-3.25c14.62-1.9,26.25-6.65,34.92-14.25,5.68-4.61,10.69-10.99,15.02-19.13,4.33-7.87,6.49-18.59,6.49-32.17,0-12.75-2.97-24.29-8.92-34.6-5.96-10.03-14.62-18.05-26-24.01ZM376.5,594.04c-11.37-5.97-25.31-8.96-41.81-8.96-23.29,0-42.24,5.15-56.85,15.46-14.34,10.31-21.79,24.29-22.33,41.94h46.29c.82-8.69,4.47-15.47,10.97-20.36,6.77-4.88,17.46-7.33,32.08-7.33,13.26,0,23.14,2.31,29.65,6.92,6.76,4.88,10.15,11.13,10.15,18.73,0,8.96-3.25,15.61-9.75,19.95-6.23,4.62-15.16,7.6-26.8,8.96-11.38,1.63-24.64,2.44-39.79,2.44-11.1,0-22.33-.41-33.71-1.22-11.09-.81-19.48-2.71-25.17-5.69-11.91-5.97-17.86-19.55-17.86-40.71v-142.88c8.66,7.6,18.81,13.43,30.45,17.5,11.64,4.07,24.51,6.1,38.58,6.1h9.34c18.14,0,33.98-3.12,47.51-9.36,13.54-6.52,24.5-15.2,32.89-26.05,7.58-9.5,13-20.62,16.24-33.38,3.25-12.76,4.87-27.55,4.87-44.38s-1.62-31.61-4.87-44.37c-3.24-12.75-8.66-23.89-16.24-33.38-8.39-10.86-19.35-19.4-32.89-25.65-13.53-6.5-29.37-9.77-47.51-9.77h-8.13c-19.21,0-35.32,3.12-48.32,9.37-12.72,5.96-22.88,13.7-30.45,23.2-7.58,9.5-13.13,19.54-16.65,30.13-3.25,10.31-4.87,19.67-4.87,28.08h26.8c1.63-11.94,9.07-21.3,22.33-28.08,13.54-7.06,31.95-10.59,55.22-10.59,15.43,0,28.97,1.9,40.6,5.71,11.91,3.8,21.26,10.03,28.03,18.73,6.76,8.41,10.15,19.95,10.15,34.6v4.07c0,14.37-3.39,25.91-10.15,34.6-6.77,8.68-16.12,14.92-28.03,18.73-11.63,3.8-25.17,5.69-40.6,5.69-23.28,0-41.68-3.53-55.22-10.58-13.26-7.06-20.7-16.43-22.33-28.09h-26.8v220.22c0,21.45,2.16,37.18,6.49,47.22,4.33,10.31,9.35,17.78,15.03,22.39,8.66,7.6,20.3,12.35,34.92,14.25,14.62,2.16,30.86,3.25,48.72,3.25s33.71-1.09,48.33-3.25c14.62-1.9,26.25-6.65,34.92-14.25,5.68-4.61,10.69-10.99,15.02-19.13,4.33-7.87,6.49-18.59,6.49-32.17,0-12.75-2.97-24.29-8.92-34.6-5.96-10.03-14.62-18.05-26-24.01ZM583.8,613.8c-4.33-2.72-12.18-4.07-23.54-4.07s-19.64,1.35-23.96,4.07c-4.6,2.97-6.9,7.05-6.9,12.21,0,5.43,2.31,9.63,6.9,12.62,4.33,3.25,12.32,4.88,23.96,4.88s19.21-1.63,23.54-4.88c4.06-2.99,6.09-7.19,6.09-12.62s-2.03-9.24-6.09-12.21ZM651.21,582.45c-13.26-7.87-30.18-11.81-50.76-11.81-13.81,0-26.12,1.63-36.95,4.88-10.82,3.53-19.21,9.09-25.17,16.69,6.77-1.63,15.16-2.44,25.17-2.44,23.01,0,39.12,2.99,48.32,8.96,8.94,5.96,13.41,15.2,13.41,27.67,0,13.3-4.47,22.8-13.41,28.49-9.2,5.71-25.31,8.56-48.32,8.56-10.01,0-18.4-.82-25.17-2.44,5.96,7.59,14.35,13.02,25.17,16.27,10.83,3.53,23.14,5.29,36.95,5.29,20.58,0,37.5-4.07,50.76-12.21,12.99-8.14,19.49-22.12,19.49-41.92v-3.66c0-20.09-6.5-34.2-19.49-42.34ZM651.21,582.45c-13.26-7.87-30.18-11.81-50.76-11.81-13.81,0-26.12,1.63-36.95,4.88-10.82,3.53-19.21,9.09-25.17,16.69,6.77-1.63,15.16-2.44,25.17-2.44,23.01,0,39.12,2.99,48.32,8.96,8.94,5.96,13.41,15.2,13.41,27.67,0,13.3-4.47,22.8-13.41,28.49-9.2,5.71-25.31,8.56-48.32,8.56-10.01,0-18.4-.82-25.17-2.44,5.96,7.59,14.35,13.02,25.17,16.27,10.83,3.53,23.14,5.29,36.95,5.29,20.58,0,37.5-4.07,50.76-12.21,12.99-8.14,19.49-22.12,19.49-41.92v-3.66c0-20.09-6.5-34.2-19.49-42.34ZM583.8,613.8c-4.33-2.72-12.18-4.07-23.54-4.07s-19.64,1.35-23.96,4.07c-4.6,2.97-6.9,7.05-6.9,12.21,0,5.43,2.31,9.63,6.9,12.62,4.33,3.25,12.32,4.88,23.96,4.88s19.21-1.63,23.54-4.88c4.06-2.99,6.09-7.19,6.09-12.62s-2.03-9.24-6.09-12.21ZM376.5,594.04c-11.37-5.97-25.31-8.96-41.81-8.96-23.29,0-42.24,5.15-56.85,15.46-14.34,10.31-21.79,24.29-22.33,41.94h46.29c.82-8.69,4.47-15.47,10.97-20.36,6.77-4.88,17.46-7.33,32.08-7.33,13.26,0,23.14,2.31,29.65,6.92,6.76,4.88,10.15,11.13,10.15,18.73,0,8.96-3.25,15.61-9.75,19.95-6.23,4.62-15.16,7.6-26.8,8.96-11.38,1.63-24.64,2.44-39.79,2.44-11.1,0-22.33-.41-33.71-1.22-11.09-.81-19.48-2.71-25.17-5.69-11.91-5.97-17.86-19.55-17.86-40.71v-142.88c8.66,7.6,18.81,13.43,30.45,17.5,11.64,4.07,24.51,6.1,38.58,6.1h9.34c18.14,0,33.98-3.12,47.51-9.36,13.54-6.52,24.5-15.2,32.89-26.05,7.58-9.5,13-20.62,16.24-33.38,3.25-12.76,4.87-27.55,4.87-44.38s-1.62-31.61-4.87-44.37c-3.24-12.75-8.66-23.89-16.24-33.38-8.39-10.86-19.35-19.4-32.89-25.65-13.53-6.5-29.37-9.77-47.51-9.77h-8.13c-19.21,0-35.32,3.12-48.32,9.37-12.72,5.96-22.88,13.7-30.45,23.2-7.58,9.5-13.13,19.54-16.65,30.13-3.25,10.31-4.87,19.67-4.87,28.08h26.8c1.63-11.94,9.07-21.3,22.33-28.08,13.54-7.06,31.95-10.59,55.22-10.59,15.43,0,28.97,1.9,40.6,5.71,11.91,3.8,21.26,10.03,28.03,18.73,6.76,8.41,10.15,19.95,10.15,34.6v4.07c0,14.37-3.39,25.91-10.15,34.6-6.77,8.68-16.12,14.92-28.03,18.73-11.63,3.8-25.17,5.69-40.6,5.69-23.28,0-41.68-3.53-55.22-10.58-13.26-7.06-20.7-16.43-22.33-28.09h-26.8v220.22c0,21.45,2.16,37.18,6.49,47.22,4.33,10.31,9.35,17.78,15.03,22.39,8.66,7.6,20.3,12.35,34.92,14.25,14.62,2.16,30.86,3.25,48.72,3.25s33.71-1.09,48.33-3.25c14.62-1.9,26.25-6.65,34.92-14.25,5.68-4.61,10.69-10.99,15.02-19.13,4.33-7.87,6.49-18.59,6.49-32.17,0-12.75-2.97-24.29-8.92-34.6-5.96-10.03-14.62-18.05-26-24.01ZM376.5,594.04c-11.37-5.97-25.31-8.96-41.81-8.96-23.29,0-42.24,5.15-56.85,15.46-14.34,10.31-21.79,24.29-22.33,41.94h46.29c.82-8.69,4.47-15.47,10.97-20.36,6.77-4.88,17.46-7.33,32.08-7.33,13.26,0,23.14,2.31,29.65,6.92,6.76,4.88,10.15,11.13,10.15,18.73,0,8.96-3.25,15.61-9.75,19.95-6.23,4.62-15.16,7.6-26.8,8.96-11.38,1.63-24.64,2.44-39.79,2.44-11.1,0-22.33-.41-33.71-1.22-11.09-.81-19.48-2.71-25.17-5.69-11.91-5.97-17.86-19.55-17.86-40.71v-142.88c8.66,7.6,18.81,13.43,30.45,17.5,11.64,4.07,24.51,6.1,38.58,6.1h9.34c18.14,0,33.98-3.12,47.51-9.36,13.54-6.52,24.5-15.2,32.89-26.05,7.58-9.5,13-20.62,16.24-33.38,3.25-12.76,4.87-27.55,4.87-44.38s-1.62-31.61-4.87-44.37c-3.24-12.75-8.66-23.89-16.24-33.38-8.39-10.86-19.35-19.4-32.89-25.65-13.53-6.5-29.37-9.77-47.51-9.77h-8.13c-19.21,0-35.32,3.12-48.32,9.37-12.72,5.96-22.88,13.7-30.45,23.2-7.58,9.5-13.13,19.54-16.65,30.13-3.25,10.31-4.87,19.67-4.87,28.08h26.8c1.63-11.94,9.07-21.3,22.33-28.08,13.54-7.06,31.95-10.59,55.22-10.59,15.43,0,28.97,1.9,40.6,5.71,11.91,3.8,21.26,10.03,28.03,18.73,6.76,8.41,10.15,19.95,10.15,34.6v4.07c0,14.37-3.39,25.91-10.15,34.6-6.77,8.68-16.12,14.92-28.03,18.73-11.63,3.8-25.17,5.69-40.6,5.69-23.28,0-41.68-3.53-55.22-10.58-13.26-7.06-20.7-16.43-22.33-28.09h-26.8v220.22c0,21.45,2.16,37.18,6.49,47.22,4.33,10.31,9.35,17.78,15.03,22.39,8.66,7.6,20.3,12.35,34.92,14.25,14.62,2.16,30.86,3.25,48.72,3.25s33.71-1.09,48.33-3.25c14.62-1.9,26.25-6.65,34.92-14.25,5.68-4.61,10.69-10.99,15.02-19.13,4.33-7.87,6.49-18.59,6.49-32.17,0-12.75-2.97-24.29-8.92-34.6-5.96-10.03-14.62-18.05-26-24.01ZM583.8,613.8c-4.33-2.72-12.18-4.07-23.54-4.07s-19.64,1.35-23.96,4.07c-4.6,2.97-6.9,7.05-6.9,12.21,0,5.43,2.31,9.63,6.9,12.62,4.33,3.25,12.32,4.88,23.96,4.88s19.21-1.63,23.54-4.88c4.06-2.99,6.09-7.19,6.09-12.62s-2.03-9.24-6.09-12.21ZM651.21,582.45c-13.26-7.87-30.18-11.81-50.76-11.81-13.81,0-26.12,1.63-36.95,4.88-10.82,3.53-19.21,9.09-25.17,16.69,6.77-1.63,15.16-2.44,25.17-2.44,23.01,0,39.12,2.99,48.32,8.96,8.94,5.96,13.41,15.2,13.41,27.67,0,13.3-4.47,22.8-13.41,28.49-9.2,5.71-25.31,8.56-48.32,8.56-10.01,0-18.4-.82-25.17-2.44,5.96,7.59,14.35,13.02,25.17,16.27,10.83,3.53,23.14,5.29,36.95,5.29,20.58,0,37.5-4.07,50.76-12.21,12.99-8.14,19.49-22.12,19.49-41.92v-3.66c0-20.09-6.5-34.2-19.49-42.34ZM651.21,582.45c-13.26-7.87-30.18-11.81-50.76-11.81-13.81,0-26.12,1.63-36.95,4.88-10.82,3.53-19.21,9.09-25.17,16.69,6.77-1.63,15.16-2.44,25.17-2.44,23.01,0,39.12,2.99,48.32,8.96,8.94,5.96,13.41,15.2,13.41,27.67,0,13.3-4.47,22.8-13.41,28.49-9.2,5.71-25.31,8.56-48.32,8.56-10.01,0-18.4-.82-25.17-2.44,5.96,7.59,14.35,13.02,25.17,16.27,10.83,3.53,23.14,5.29,36.95,5.29,20.58,0,37.5-4.07,50.76-12.21,12.99-8.14,19.49-22.12,19.49-41.92v-3.66c0-20.09-6.5-34.2-19.49-42.34ZM583.8,638.63c4.06-2.99,6.09-7.19,6.09-12.62s-2.03-9.24-6.09-12.21c-4.33-2.72-12.18-4.07-23.54-4.07s-19.64,1.35-23.96,4.07c-4.6,2.97-6.9,7.05-6.9,12.21,0,5.43,2.31,9.63,6.9,12.62,4.33,3.25,12.32,4.88,23.96,4.88s19.21-1.63,23.54-4.88ZM376.5,594.04c-11.37-5.97-25.31-8.96-41.81-8.96-23.29,0-42.24,5.15-56.85,15.46-14.34,10.31-21.79,24.29-22.33,41.94h46.29c.82-8.69,4.47-15.47,10.97-20.36,6.77-4.88,17.46-7.33,32.08-7.33,13.26,0,23.14,2.31,29.65,6.92,6.76,4.88,10.15,11.13,10.15,18.73,0,8.96-3.25,15.61-9.75,19.95-6.23,4.62-15.16,7.6-26.8,8.96-11.38,1.63-24.64,2.44-39.79,2.44-11.1,0-22.33-.41-33.71-1.22-11.09-.81-19.48-2.71-25.17-5.69-11.91-5.97-17.86-19.55-17.86-40.71v-142.88c8.66,7.6,18.81,13.43,30.45,17.5,11.64,4.07,24.51,6.1,38.58,6.1h9.34c18.14,0,33.98-3.12,47.51-9.36,13.54-6.52,24.5-15.2,32.89-26.05,7.58-9.5,13-20.62,16.24-33.38,3.25-12.76,4.87-27.55,4.87-44.38s-1.62-31.61-4.87-44.37c-3.24-12.75-8.66-23.89-16.24-33.38-8.39-10.86-19.35-19.4-32.89-25.65-13.53-6.5-29.37-9.77-47.51-9.77h-8.13c-19.21,0-35.32,3.12-48.32,9.37-12.72,5.96-22.88,13.7-30.45,23.2-7.58,9.5-13.13,19.54-16.65,30.13-3.25,10.31-4.87,19.67-4.87,28.08h26.8c1.63-11.94,9.07-21.3,22.33-28.08,13.54-7.06,31.95-10.59,55.22-10.59,15.43,0,28.97,1.9,40.6,5.71,11.91,3.8,21.26,10.03,28.03,18.73,6.76,8.41,10.15,19.95,10.15,34.6v4.07c0,14.37-3.39,25.91-10.15,34.6-6.77,8.68-16.12,14.92-28.03,18.73-11.63,3.8-25.17,5.69-40.6,5.69-23.28,0-41.68-3.53-55.22-10.58-13.26-7.06-20.7-16.43-22.33-28.09h-26.8v220.22c0,21.45,2.16,37.18,6.49,47.22,4.33,10.31,9.35,17.78,15.03,22.39,8.66,7.6,20.3,12.35,34.92,14.25,14.62,2.16,30.86,3.25,48.72,3.25s33.71-1.09,48.33-3.25c14.62-1.9,26.25-6.65,34.92-14.25,5.68-4.61,10.69-10.99,15.02-19.13,4.33-7.87,6.49-18.59,6.49-32.17,0-12.75-2.97-24.29-8.92-34.6-5.96-10.03-14.62-18.05-26-24.01ZM877.64,10.3H122.36C60.47,10.3,10.3,60.47,10.3,122.36v755.29c0,61.88,50.17,112.05,112.07,112.05h755.28c61.89,0,112.07-50.17,112.07-112.05V122.36c0-61.88-50.17-112.05-112.07-112.05ZM480.55,727.81c0,29.2-23.68,52.88-52.88,52.88h-242.41c-29.22,0-52.89-23.68-52.89-52.88v-455.61c0-29.2,23.68-52.88,52.89-52.88h242.41c29.2,0,52.88,23.68,52.88,52.88v455.61ZM691.4,664.68c-2.97,11.12-7.85,20.89-14.62,29.3-7.3,9.22-16.92,16.55-28.83,21.98-11.91,5.43-25.85,8.15-41.82,8.15h-7.3c-15.71,0-29.5-2.72-41.41-8.15-12.19-5.43-21.93-12.75-29.24-21.98-6.77-8.41-11.51-18.18-14.22-29.3-2.97-10.86-4.46-23.61-4.46-38.27s1.49-27.13,4.46-38.26c2.71-10.86,7.45-20.49,14.22-28.9,7.3-9.22,17.05-16.55,29.24-21.98,11.91-5.43,25.71-8.14,41.41-8.14h7.3c15.97,0,29.91,2.71,41.82,8.14,11.91,5.43,21.52,12.75,28.83,21.98,6.77,8.41,11.64,18.05,14.62,28.9,2.71,11.13,4.06,23.89,4.06,38.26s-1.35,27.42-4.06,38.27ZM862.76,438.75c-3.25,12.75-8.67,23.89-16.24,33.38-8.4,10.86-19.49,19.55-33.3,26.05-13.81,6.25-30.33,9.37-49.54,9.37-8.94,0-16.65-.41-23.14-1.22v-50.88h21.52c15.43,0,29.09-1.9,41-5.71,11.91-3.8,21.12-10.03,27.62-18.73,6.77-8.68,10.15-20.21,10.15-34.6v-4.06c0-14.66-3.37-26.2-10.15-34.61-6.49-8.68-15.71-14.92-27.62-18.73-11.91-3.8-25.57-5.69-41-5.69-13.54,0-25.72,1.49-36.55,4.47-9.14,2.3-16.92,6.04-23.35,11.24.09.32.17.64.26.98,3.25,12.75,4.87,27.54,4.87,44.37s-1.62,31.61-4.87,44.37c-3.24,12.75-8.66,23.89-16.24,33.38-8.39,10.86-19.36,19.55-32.89,26.05-13.53,6.25-29.37,9.37-47.51,9.37h-8.13c-18.14,0-33.97-3.12-47.51-9.37-13.53-6.5-24.5-15.2-32.89-26.05-7.58-9.49-12.99-20.62-16.24-33.38-3.25-12.75-4.87-27.54-4.87-44.37s1.62-31.61,4.87-44.37c3.25-12.76,8.66-23.89,16.24-33.39,8.39-10.86,19.36-19.4,32.89-25.64,13.54-6.52,29.37-9.77,47.51-9.77h8.13c18.14,0,33.98,3.25,47.51,9.77,11.31,5.22,20.82,12.04,28.53,20.48,7.33-8.36,17.03-15.32,29.08-20.89,13.26-6.24,28.97-9.36,47.11-9.36h8.11c18.14,0,33.98,3.25,47.51,9.77,13.54,6.24,24.5,14.79,32.9,25.64,7.57,9.5,12.99,20.62,16.24,33.39,3.24,12.75,4.87,27.54,4.87,44.37s-1.63,31.61-4.87,44.37ZM651.21,582.45c-13.26-7.87-30.18-11.81-50.76-11.81-13.81,0-26.12,1.63-36.95,4.88-10.82,3.53-19.21,9.09-25.17,16.69,6.77-1.63,15.16-2.44,25.17-2.44,23.01,0,39.12,2.99,48.32,8.96,8.94,5.96,13.41,15.2,13.41,27.67,0,13.3-4.47,22.8-13.41,28.49-9.2,5.71-25.31,8.56-48.32,8.56-10.01,0-18.4-.82-25.17-2.44,5.96,7.59,14.35,13.02,25.17,16.27,10.83,3.53,23.14,5.29,36.95,5.29,20.58,0,37.5-4.07,50.76-12.21,12.99-8.14,19.49-22.12,19.49-41.92v-3.66c0-20.09-6.5-34.2-19.49-42.34ZM583.8,638.63c4.06-2.99,6.09-7.19,6.09-12.62s-2.03-9.24-6.09-12.21c-4.33-2.72-12.18-4.07-23.54-4.07s-19.64,1.35-23.96,4.07c-4.6,2.97-6.9,7.05-6.9,12.21,0,5.43,2.31,9.63,6.9,12.62,4.33,3.25,12.32,4.88,23.96,4.88s19.21-1.63,23.54-4.88ZM261.99,498.78c11.64,4.07,24.51,6.1,38.58,6.1h9.34c18.14,0,33.98-3.12,47.51-9.36,13.54-6.52,24.5-15.2,32.89-26.05,7.58-9.5,13-20.62,16.24-33.38,3.25-12.76,4.87-27.55,4.87-44.38s-1.62-31.61-4.87-44.37c-3.24-12.75-8.66-23.89-16.24-33.38-8.39-10.86-19.35-19.4-32.89-25.65-13.53-6.5-29.37-9.77-47.51-9.77h-8.13c-19.21,0-35.32,3.12-48.32,9.37-12.72,5.96-22.88,13.7-30.45,23.2-7.58,9.5-13.13,19.54-16.65,30.13-3.25,10.31-4.87,19.67-4.87,28.08h26.8c1.63-11.94,9.07-21.3,22.33-28.08,13.54-7.06,31.95-10.59,55.22-10.59,15.43,0,28.97,1.9,40.6,5.71,11.91,3.8,21.26,10.03,28.03,18.73,6.76,8.41,10.15,19.95,10.15,34.6v4.07c0,14.37-3.39,25.91-10.15,34.6-6.77,8.68-16.12,14.92-28.03,18.73-11.63,3.8-25.17,5.69-40.6,5.69-23.28,0-41.68-3.53-55.22-10.58-13.26-7.06-20.7-16.43-22.33-28.09h-26.8v220.22c0,21.45,2.16,37.18,6.49,47.22,4.33,10.31,9.35,17.78,15.03,22.39,8.66,7.6,20.3,12.35,34.92,14.25,14.62,2.16,30.86,3.25,48.72,3.25s33.71-1.09,48.33-3.25c14.62-1.9,26.25-6.65,34.92-14.25,5.68-4.61,10.69-10.99,15.02-19.13,4.33-7.87,6.49-18.59,6.49-32.17,0-12.75-2.97-24.29-8.92-34.6-5.96-10.03-14.62-18.05-26-24.01-11.37-5.97-25.31-8.96-41.81-8.96-23.29,0-42.24,5.15-56.85,15.46-14.34,10.31-21.79,24.29-22.33,41.94h46.29c.82-8.69,4.47-15.47,10.97-20.36,6.77-4.88,17.46-7.33,32.08-7.33,13.26,0,23.14,2.31,29.65,6.92,6.76,4.88,10.15,11.13,10.15,18.73,0,8.96-3.25,15.61-9.75,19.95-6.23,4.62-15.16,7.6-26.8,8.96-11.38,1.63-24.64,2.44-39.79,2.44-11.1,0-22.33-.41-33.71-1.22-11.09-.81-19.48-2.71-25.17-5.69-11.91-5.97-17.86-19.55-17.86-40.71v-142.88c8.66,7.6,18.81,13.43,30.45,17.5ZM376.5,594.04c-11.37-5.97-25.31-8.96-41.81-8.96-23.29,0-42.24,5.15-56.85,15.46-14.34,10.31-21.79,24.29-22.33,41.94h46.29c.82-8.69,4.47-15.47,10.97-20.36,6.77-4.88,17.46-7.33,32.08-7.33,13.26,0,23.14,2.31,29.65,6.92,6.76,4.88,10.15,11.13,10.15,18.73,0,8.96-3.25,15.61-9.75,19.95-6.23,4.62-15.16,7.6-26.8,8.96-11.38,1.63-24.64,2.44-39.79,2.44-11.1,0-22.33-.41-33.71-1.22-11.09-.81-19.48-2.71-25.17-5.69-11.91-5.97-17.86-19.55-17.86-40.71v-142.88c8.66,7.6,18.81,13.43,30.45,17.5,11.64,4.07,24.51,6.1,38.58,6.1h9.34c18.14,0,33.98-3.12,47.51-9.36,13.54-6.52,24.5-15.2,32.89-26.05,7.58-9.5,13-20.62,16.24-33.38,3.25-12.76,4.87-27.55,4.87-44.38s-1.62-31.61-4.87-44.37c-3.24-12.75-8.66-23.89-16.24-33.38-8.39-10.86-19.35-19.4-32.89-25.65-13.53-6.5-29.37-9.77-47.51-9.77h-8.13c-19.21,0-35.32,3.12-48.32,9.37-12.72,5.96-22.88,13.7-30.45,23.2-7.58,9.5-13.13,19.54-16.65,30.13-3.25,10.31-4.87,19.67-4.87,28.08h26.8c1.63-11.94,9.07-21.3,22.33-28.08,13.54-7.06,31.95-10.59,55.22-10.59,15.43,0,28.97,1.9,40.6,5.71,11.91,3.8,21.26,10.03,28.03,18.73,6.76,8.41,10.15,19.95,10.15,34.6v4.07c0,14.37-3.39,25.91-10.15,34.6-6.77,8.68-16.12,14.92-28.03,18.73-11.63,3.8-25.17,5.69-40.6,5.69-23.28,0-41.68-3.53-55.22-10.58-13.26-7.06-20.7-16.43-22.33-28.09h-26.8v220.22c0,21.45,2.16,37.18,6.49,47.22,4.33,10.31,9.35,17.78,15.03,22.39,8.66,7.6,20.3,12.35,34.92,14.25,14.62,2.16,30.86,3.25,48.72,3.25s33.71-1.09,48.33-3.25c14.62-1.9,26.25-6.65,34.92-14.25,5.68-4.61,10.69-10.99,15.02-19.13,4.33-7.87,6.49-18.59,6.49-32.17,0-12.75-2.97-24.29-8.92-34.6-5.96-10.03-14.62-18.05-26-24.01ZM583.8,613.8c-4.33-2.72-12.18-4.07-23.54-4.07s-19.64,1.35-23.96,4.07c-4.6,2.97-6.9,7.05-6.9,12.21,0,5.43,2.31,9.63,6.9,12.62,4.33,3.25,12.32,4.88,23.96,4.88s19.21-1.63,23.54-4.88c4.06-2.99,6.09-7.19,6.09-12.62s-2.03-9.24-6.09-12.21ZM651.21,582.45c-13.26-7.87-30.18-11.81-50.76-11.81-13.81,0-26.12,1.63-36.95,4.88-10.82,3.53-19.21,9.09-25.17,16.69,6.77-1.63,15.16-2.44,25.17-2.44,23.01,0,39.12,2.99,48.32,8.96,8.94,5.96,13.41,15.2,13.41,27.67,0,13.3-4.47,22.8-13.41,28.49-9.2,5.71-25.31,8.56-48.32,8.56-10.01,0-18.4-.82-25.17-2.44,5.96,7.59,14.35,13.02,25.17,16.27,10.83,3.53,23.14,5.29,36.95,5.29,20.58,0,37.5-4.07,50.76-12.21,12.99-8.14,19.49-22.12,19.49-41.92v-3.66c0-20.09-6.5-34.2-19.49-42.34ZM651.21,582.45c-13.26-7.87-30.18-11.81-50.76-11.81-13.81,0-26.12,1.63-36.95,4.88-10.82,3.53-19.21,9.09-25.17,16.69,6.77-1.63,15.16-2.44,25.17-2.44,23.01,0,39.12,2.99,48.32,8.96,8.94,5.96,13.41,15.2,13.41,27.67,0,13.3-4.47,22.8-13.41,28.49-9.2,5.71-25.31,8.56-48.32,8.56-10.01,0-18.4-.82-25.17-2.44,5.96,7.59,14.35,13.02,25.17,16.27,10.83,3.53,23.14,5.29,36.95,5.29,20.58,0,37.5-4.07,50.76-12.21,12.99-8.14,19.49-22.12,19.49-41.92v-3.66c0-20.09-6.5-34.2-19.49-42.34ZM583.8,613.8c-4.33-2.72-12.18-4.07-23.54-4.07s-19.64,1.35-23.96,4.07c-4.6,2.97-6.9,7.05-6.9,12.21,0,5.43,2.31,9.63,6.9,12.62,4.33,3.25,12.32,4.88,23.96,4.88s19.21-1.63,23.54-4.88c4.06-2.99,6.09-7.19,6.09-12.62s-2.03-9.24-6.09-12.21ZM376.5,594.04c-11.37-5.97-25.31-8.96-41.81-8.96-23.29,0-42.24,5.15-56.85,15.46-14.34,10.31-21.79,24.29-22.33,41.94h46.29c.82-8.69,4.47-15.47,10.97-20.36,6.77-4.88,17.46-7.33,32.08-7.33,13.26,0,23.14,2.31,29.65,6.92,6.76,4.88,10.15,11.13,10.15,18.73,0,8.96-3.25,15.61-9.75,19.95-6.23,4.62-15.16,7.6-26.8,8.96-11.38,1.63-24.64,2.44-39.79,2.44-11.1,0-22.33-.41-33.71-1.22-11.09-.81-19.48-2.71-25.17-5.69-11.91-5.97-17.86-19.55-17.86-40.71v-142.88c8.66,7.6,18.81,13.43,30.45,17.5,11.64,4.07,24.51,6.1,38.58,6.1h9.34c18.14,0,33.98-3.12,47.51-9.36,13.54-6.52,24.5-15.2,32.89-26.05,7.58-9.5,13-20.62,16.24-33.38,3.25-12.76,4.87-27.55,4.87-44.38s-1.62-31.61-4.87-44.37c-3.24-12.75-8.66-23.89-16.24-33.38-8.39-10.86-19.35-19.4-32.89-25.65-13.53-6.5-29.37-9.77-47.51-9.77h-8.13c-19.21,0-35.32,3.12-48.32,9.37-12.72,5.96-22.88,13.7-30.45,23.2-7.58,9.5-13.13,19.54-16.65,30.13-3.25,10.31-4.87,19.67-4.87,28.08h26.8c1.63-11.94,9.07-21.3,22.33-28.08,13.54-7.06,31.95-10.59,55.22-10.59,15.43,0,28.97,1.9,40.6,5.71,11.91,3.8,21.26,10.03,28.03,18.73,6.76,8.41,10.15,19.95,10.15,34.6v4.07c0,14.37-3.39,25.91-10.15,34.6-6.77,8.68-16.12,14.92-28.03,18.73-11.63,3.8-25.17,5.69-40.6,5.69-23.28,0-41.68-3.53-55.22-10.58-13.26-7.06-20.7-16.43-22.33-28.09h-26.8v220.22c0,21.45,2.16,37.18,6.49,47.22,4.33,10.31,9.35,17.78,15.03,22.39,8.66,7.6,20.3,12.35,34.92,14.25,14.62,2.16,30.86,3.25,48.72,3.25s33.71-1.09,48.33-3.25c14.62-1.9,26.25-6.65,34.92-14.25,5.68-4.61,10.69-10.99,15.02-19.13,4.33-7.87,6.49-18.59,6.49-32.17,0-12.75-2.97-24.29-8.92-34.6-5.96-10.03-14.62-18.05-26-24.01ZM376.5,594.04c-11.37-5.97-25.31-8.96-41.81-8.96-23.29,0-42.24,5.15-56.85,15.46-14.34,10.31-21.79,24.29-22.33,41.94h46.29c.82-8.69,4.47-15.47,10.97-20.36,6.77-4.88,17.46-7.33,32.08-7.33,13.26,0,23.14,2.31,29.65,6.92,6.76,4.88,10.15,11.13,10.15,18.73,0,8.96-3.25,15.61-9.75,19.95-6.23,4.62-15.16,7.6-26.8,8.96-11.38,1.63-24.64,2.44-39.79,2.44-11.1,0-22.33-.41-33.71-1.22-11.09-.81-19.48-2.71-25.17-5.69-11.91-5.97-17.86-19.55-17.86-40.71v-142.88c8.66,7.6,18.81,13.43,30.45,17.5,11.64,4.07,24.51,6.1,38.58,6.1h9.34c18.14,0,33.98-3.12,47.51-9.36,13.54-6.52,24.5-15.2,32.89-26.05,7.58-9.5,13-20.62,16.24-33.38,3.25-12.76,4.87-27.55,4.87-44.38s-1.62-31.61-4.87-44.37c-3.24-12.75-8.66-23.89-16.24-33.38-8.39-10.86-19.35-19.4-32.89-25.65-13.53-6.5-29.37-9.77-47.51-9.77h-8.13c-19.21,0-35.32,3.12-48.32,9.37-12.72,5.96-22.88,13.7-30.45,23.2-7.58,9.5-13.13,19.54-16.65,30.13-3.25,10.31-4.87,19.67-4.87,28.08h26.8c1.63-11.94,9.07-21.3,22.33-28.08,13.54-7.06,31.95-10.59,55.22-10.59,15.43,0,28.97,1.9,40.6,5.71,11.91,3.8,21.26,10.03,28.03,18.73,6.76,8.41,10.15,19.95,10.15,34.6v4.07c0,14.37-3.39,25.91-10.15,34.6-6.77,8.68-16.12,14.92-28.03,18.73-11.63,3.8-25.17,5.69-40.6,5.69-23.28,0-41.68-3.53-55.22-10.58-13.26-7.06-20.7-16.43-22.33-28.09h-26.8v220.22c0,21.45,2.16,37.18,6.49,47.22,4.33,10.31,9.35,17.78,15.03,22.39,8.66,7.6,20.3,12.35,34.92,14.25,14.62,2.16,30.86,3.25,48.72,3.25s33.71-1.09,48.33-3.25c14.62-1.9,26.25-6.65,34.92-14.25,5.68-4.61,10.69-10.99,15.02-19.13,4.33-7.87,6.49-18.59,6.49-32.17,0-12.75-2.97-24.29-8.92-34.6-5.96-10.03-14.62-18.05-26-24.01ZM583.8,613.8c-4.33-2.72-12.18-4.07-23.54-4.07s-19.64,1.35-23.96,4.07c-4.6,2.97-6.9,7.05-6.9,12.21,0,5.43,2.31,9.63,6.9,12.62,4.33,3.25,12.32,4.88,23.96,4.88s19.21-1.63,23.54-4.88c4.06-2.99,6.09-7.19,6.09-12.62s-2.03-9.24-6.09-12.21ZM651.21,582.45c-13.26-7.87-30.18-11.81-50.76-11.81-13.81,0-26.12,1.63-36.95,4.88-10.82,3.53-19.21,9.09-25.17,16.69,6.77-1.63,15.16-2.44,25.17-2.44,23.01,0,39.12,2.99,48.32,8.96,8.94,5.96,13.41,15.2,13.41,27.67,0,13.3-4.47,22.8-13.41,28.49-9.2,5.71-25.31,8.56-48.32,8.56-10.01,0-18.4-.82-25.17-2.44,5.96,7.59,14.35,13.02,25.17,16.27,10.83,3.53,23.14,5.29,36.95,5.29,20.58,0,37.5-4.07,50.76-12.21,12.99-8.14,19.49-22.12,19.49-41.92v-3.66c0-20.09-6.5-34.2-19.49-42.34ZM651.21,582.45c-13.26-7.87-30.18-11.81-50.76-11.81-13.81,0-26.12,1.63-36.95,4.88-10.82,3.53-19.21,9.09-25.17,16.69,6.77-1.63,15.16-2.44,25.17-2.44,23.01,0,39.12,2.99,48.32,8.96,8.94,5.96,13.41,15.2,13.41,27.67,0,13.3-4.47,22.8-13.41,28.49-9.2,5.71-25.31,8.56-48.32,8.56-10.01,0-18.4-.82-25.17-2.44,5.96,7.59,14.35,13.02,25.17,16.27,10.83,3.53,23.14,5.29,36.95,5.29,20.58,0,37.5-4.07,50.76-12.21,12.99-8.14,19.49-22.12,19.49-41.92v-3.66c0-20.09-6.5-34.2-19.49-42.34ZM583.8,613.8c-4.33-2.72-12.18-4.07-23.54-4.07s-19.64,1.35-23.96,4.07c-4.6,2.97-6.9,7.05-6.9,12.21,0,5.43,2.31,9.63,6.9,12.62,4.33,3.25,12.32,4.88,23.96,4.88s19.21-1.63,23.54-4.88c4.06-2.99,6.09-7.19,6.09-12.62s-2.03-9.24-6.09-12.21ZM376.5,594.04c-11.37-5.97-25.31-8.96-41.81-8.96-23.29,0-42.24,5.15-56.85,15.46-14.34,10.31-21.79,24.29-22.33,41.94h46.29c.82-8.69,4.47-15.47,10.97-20.36,6.77-4.88,17.46-7.33,32.08-7.33,13.26,0,23.14,2.31,29.65,6.92,6.76,4.88,10.15,11.13,10.15,18.73,0,8.96-3.25,15.61-9.75,19.95-6.23,4.62-15.16,7.6-26.8,8.96-11.38,1.63-24.64,2.44-39.79,2.44-11.1,0-22.33-.41-33.71-1.22-11.09-.81-19.48-2.71-25.17-5.69-11.91-5.97-17.86-19.55-17.86-40.71v-142.88c8.66,7.6,18.81,13.43,30.45,17.5,11.64,4.07,24.51,6.1,38.58,6.1h9.34c18.14,0,33.98-3.12,47.51-9.36,13.54-6.52,24.5-15.2,32.89-26.05,7.58-9.5,13-20.62,16.24-33.38,3.25-12.76,4.87-27.55,4.87-44.38s-1.62-31.61-4.87-44.37c-3.24-12.75-8.66-23.89-16.24-33.38-8.39-10.86-19.35-19.4-32.89-25.65-13.53-6.5-29.37-9.77-47.51-9.77h-8.13c-19.21,0-35.32,3.12-48.32,9.37-12.72,5.96-22.88,13.7-30.45,23.2-7.58,9.5-13.13,19.54-16.65,30.13-3.25,10.31-4.87,19.67-4.87,28.08h26.8c1.63-11.94,9.07-21.3,22.33-28.08,13.54-7.06,31.95-10.59,55.22-10.59,15.43,0,28.97,1.9,40.6,5.71,11.91,3.8,21.26,10.03,28.03,18.73,6.76,8.41,10.15,19.95,10.15,34.6v4.07c0,14.37-3.39,25.91-10.15,34.6-6.77,8.68-16.12,14.92-28.03,18.73-11.63,3.8-25.17,5.69-40.6,5.69-23.28,0-41.68-3.53-55.22-10.58-13.26-7.06-20.7-16.43-22.33-28.09h-26.8v220.22c0,21.45,2.16,37.18,6.49,47.22,4.33,10.31,9.35,17.78,15.03,22.39,8.66,7.6,20.3,12.35,34.92,14.25,14.62,2.16,30.86,3.25,48.72,3.25s33.71-1.09,48.33-3.25c14.62-1.9,26.25-6.65,34.92-14.25,5.68-4.61,10.69-10.99,15.02-19.13,4.33-7.87,6.49-18.59,6.49-32.17,0-12.75-2.97-24.29-8.92-34.6-5.96-10.03-14.62-18.05-26-24.01ZM376.5,594.04c-11.37-5.97-25.31-8.96-41.81-8.96-23.29,0-42.24,5.15-56.85,15.46-14.34,10.31-21.79,24.29-22.33,41.94h46.29c.82-8.69,4.47-15.47,10.97-20.36,6.77-4.88,17.46-7.33,32.08-7.33,13.26,0,23.14,2.31,29.65,6.92,6.76,4.88,10.15,11.13,10.15,18.73,0,8.96-3.25,15.61-9.75,19.95-6.23,4.62-15.16,7.6-26.8,8.96-11.38,1.63-24.64,2.44-39.79,2.44-11.1,0-22.33-.41-33.71-1.22-11.09-.81-19.48-2.71-25.17-5.69-11.91-5.97-17.86-19.55-17.86-40.71v-142.88c8.66,7.6,18.81,13.43,30.45,17.5,11.64,4.07,24.51,6.1,38.58,6.1h9.34c18.14,0,33.98-3.12,47.51-9.36,13.54-6.52,24.5-15.2,32.89-26.05,7.58-9.5,13-20.62,16.24-33.38,3.25-12.76,4.87-27.55,4.87-44.38s-1.62-31.61-4.87-44.37c-3.24-12.75-8.66-23.89-16.24-33.38-8.39-10.86-19.35-19.4-32.89-25.65-13.53-6.5-29.37-9.77-47.51-9.77h-8.13c-19.21,0-35.32,3.12-48.32,9.37-12.72,5.96-22.88,13.7-30.45,23.2-7.58,9.5-13.13,19.54-16.65,30.13-3.25,10.31-4.87,19.67-4.87,28.08h26.8c1.63-11.94,9.07-21.3,22.33-28.08,13.54-7.06,31.95-10.59,55.22-10.59,15.43,0,28.97,1.9,40.6,5.71,11.91,3.8,21.26,10.03,28.03,18.73,6.76,8.41,10.15,19.95,10.15,34.6v4.07c0,14.37-3.39,25.91-10.15,34.6-6.77,8.68-16.12,14.92-28.03,18.73-11.63,3.8-25.17,5.69-40.6,5.69-23.28,0-41.68-3.53-55.22-10.58-13.26-7.06-20.7-16.43-22.33-28.09h-26.8v220.22c0,21.45,2.16,37.18,6.49,47.22,4.33,10.31,9.35,17.78,15.03,22.39,8.66,7.6,20.3,12.35,34.92,14.25,14.62,2.16,30.86,3.25,48.72,3.25s33.71-1.09,48.33-3.25c14.62-1.9,26.25-6.65,34.92-14.25,5.68-4.61,10.69-10.99,15.02-19.13,4.33-7.87,6.49-18.59,6.49-32.17,0-12.75-2.97-24.29-8.92-34.6-5.96-10.03-14.62-18.05-26-24.01ZM583.8,613.8c-4.33-2.72-12.18-4.07-23.54-4.07s-19.64,1.35-23.96,4.07c-4.6,2.97-6.9,7.05-6.9,12.21,0,5.43,2.31,9.63,6.9,12.62,4.33,3.25,12.32,4.88,23.96,4.88s19.21-1.63,23.54-4.88c4.06-2.99,6.09-7.19,6.09-12.62s-2.03-9.24-6.09-12.21ZM651.21,582.45c-13.26-7.87-30.18-11.81-50.76-11.81-13.81,0-26.12,1.63-36.95,4.88-10.82,3.53-19.21,9.09-25.17,16.69,6.77-1.63,15.16-2.44,25.17-2.44,23.01,0,39.12,2.99,48.32,8.96,8.94,5.96,13.41,15.2,13.41,27.67,0,13.3-4.47,22.8-13.41,28.49-9.2,5.71-25.31,8.56-48.32,8.56-10.01,0-18.4-.82-25.17-2.44,5.96,7.59,14.35,13.02,25.17,16.27,10.83,3.53,23.14,5.29,36.95,5.29,20.58,0,37.5-4.07,50.76-12.21,12.99-8.14,19.49-22.12,19.49-41.92v-3.66c0-20.09-6.5-34.2-19.49-42.34ZM651.21,582.45c-13.26-7.87-30.18-11.81-50.76-11.81-13.81,0-26.12,1.63-36.95,4.88-10.82,3.53-19.21,9.09-25.17,16.69,6.77-1.63,15.16-2.44,25.17-2.44,23.01,0,39.12,2.99,48.32,8.96,8.94,5.96,13.41,15.2,13.41,27.67,0,13.3-4.47,22.8-13.41,28.49-9.2,5.71-25.31,8.56-48.32,8.56-10.01,0-18.4-.82-25.17-2.44,5.96,7.59,14.35,13.02,25.17,16.27,10.83,3.53,23.14,5.29,36.95,5.29,20.58,0,37.5-4.07,50.76-12.21,12.99-8.14,19.49-22.12,19.49-41.92v-3.66c0-20.09-6.5-34.2-19.49-42.34ZM583.8,613.8c-4.33-2.72-12.18-4.07-23.54-4.07s-19.64,1.35-23.96,4.07c-4.6,2.97-6.9,7.05-6.9,12.21,0,5.43,2.31,9.63,6.9,12.62,4.33,3.25,12.32,4.88,23.96,4.88s19.21-1.63,23.54-4.88c4.06-2.99,6.09-7.19,6.09-12.62s-2.03-9.24-6.09-12.21ZM376.5,594.04c-11.37-5.97-25.31-8.96-41.81-8.96-23.29,0-42.24,5.15-56.85,15.46-14.34,10.31-21.79,24.29-22.33,41.94h46.29c.82-8.69,4.47-15.47,10.97-20.36,6.77-4.88,17.46-7.33,32.08-7.33,13.26,0,23.14,2.31,29.65,6.92,6.76,4.88,10.15,11.13,10.15,18.73,0,8.96-3.25,15.61-9.75,19.95-6.23,4.62-15.16,7.6-26.8,8.96-11.38,1.63-24.64,2.44-39.79,2.44-11.1,0-22.33-.41-33.71-1.22-11.09-.81-19.48-2.71-25.17-5.69-11.91-5.97-17.86-19.55-17.86-40.71v-142.88c8.66,7.6,18.81,13.43,30.45,17.5,11.64,4.07,24.51,6.1,38.58,6.1h9.34c18.14,0,33.98-3.12,47.51-9.36,13.54-6.52,24.5-15.2,32.89-26.05,7.58-9.5,13-20.62,16.24-33.38,3.25-12.76,4.87-27.55,4.87-44.38s-1.62-31.61-4.87-44.37c-3.24-12.75-8.66-23.89-16.24-33.38-8.39-10.86-19.35-19.4-32.89-25.65-13.53-6.5-29.37-9.77-47.51-9.77h-8.13c-19.21,0-35.32,3.12-48.32,9.37-12.72,5.96-22.88,13.7-30.45,23.2-7.58,9.5-13.13,19.54-16.65,30.13-3.25,10.31-4.87,19.67-4.87,28.08h26.8c1.63-11.94,9.07-21.3,22.33-28.08,13.54-7.06,31.95-10.59,55.22-10.59,15.43,0,28.97,1.9,40.6,5.71,11.91,3.8,21.26,10.03,28.03,18.73,6.76,8.41,10.15,19.95,10.15,34.6v4.07c0,14.37-3.39,25.91-10.15,34.6-6.77,8.68-16.12,14.92-28.03,18.73-11.63,3.8-25.17,5.69-40.6,5.69-23.28,0-41.68-3.53-55.22-10.58-13.26-7.06-20.7-16.43-22.33-28.09h-26.8v220.22c0,21.45,2.16,37.18,6.49,47.22,4.33,10.31,9.35,17.78,15.03,22.39,8.66,7.6,20.3,12.35,34.92,14.25,14.62,2.16,30.86,3.25,48.72,3.25s33.71-1.09,48.33-3.25c14.62-1.9,26.25-6.65,34.92-14.25,5.68-4.61,10.69-10.99,15.02-19.13,4.33-7.87,6.49-18.59,6.49-32.17,0-12.75-2.97-24.29-8.92-34.6-5.96-10.03-14.62-18.05-26-24.01ZM583.8,613.8c-4.33-2.72-12.18-4.07-23.54-4.07s-19.64,1.35-23.96,4.07c-4.6,2.97-6.9,7.05-6.9,12.21,0,5.43,2.31,9.63,6.9,12.62,4.33,3.25,12.32,4.88,23.96,4.88s19.21-1.63,23.54-4.88c4.06-2.99,6.09-7.19,6.09-12.62s-2.03-9.24-6.09-12.21ZM651.21,582.45c-13.26-7.87-30.18-11.81-50.76-11.81-13.81,0-26.12,1.63-36.95,4.88-10.82,3.53-19.21,9.09-25.17,16.69,6.77-1.63,15.16-2.44,25.17-2.44,23.01,0,39.12,2.99,48.32,8.96,8.94,5.96,13.41,15.2,13.41,27.67,0,13.3-4.47,22.8-13.41,28.49-9.2,5.71-25.31,8.56-48.32,8.56-10.01,0-18.4-.82-25.17-2.44,5.96,7.59,14.35,13.02,25.17,16.27,10.83,3.53,23.14,5.29,36.95,5.29,20.58,0,37.5-4.07,50.76-12.21,12.99-8.14,19.49-22.12,19.49-41.92v-3.66c0-20.09-6.5-34.2-19.49-42.34ZM651.21,582.45c-13.26-7.87-30.18-11.81-50.76-11.81-13.81,0-26.12,1.63-36.95,4.88-10.82,3.53-19.21,9.09-25.17,16.69,6.77-1.63,15.16-2.44,25.17-2.44,23.01,0,39.12,2.99,48.32,8.96,8.94,5.96,13.41,15.2,13.41,27.67,0,13.3-4.47,22.8-13.41,28.49-9.2,5.71-25.31,8.56-48.32,8.56-10.01,0-18.4-.82-25.17-2.44,5.96,7.59,14.35,13.02,25.17,16.27,10.83,3.53,23.14,5.29,36.95,5.29,20.58,0,37.5-4.07,50.76-12.21,12.99-8.14,19.49-22.12,19.49-41.92v-3.66c0-20.09-6.5-34.2-19.49-42.34ZM583.8,613.8c-4.33-2.72-12.18-4.07-23.54-4.07s-19.64,1.35-23.96,4.07c-4.6,2.97-6.9,7.05-6.9,12.21,0,5.43,2.31,9.63,6.9,12.62,4.33,3.25,12.32,4.88,23.96,4.88s19.21-1.63,23.54-4.88c4.06-2.99,6.09-7.19,6.09-12.62s-2.03-9.24-6.09-12.21Z"/>
</svg>