<?xml version="1.0" encoding="UTF-8"?>
<svg id="Layer_1" data-name="Layer 1" xmlns="http://www.w3.org/2000/svg" viewBox="0 0 1000 1000">
  <defs>
    <style>
      .cls-1 {
        fill: #9bcad7;
        stroke-width: 0px;
      }
    </style>
  </defs>
  <path class="cls-1" d="M427.67,219.31h-242.41c-29.22,0-52.89,23.68-52.89,52.88v455.61c0,29.2,23.68,52.88,52.89,52.88h242.41c29.2,0,52.88-23.68,52.88-52.88v-455.61c0-29.2-23.68-52.88-52.88-52.88ZM249.4,664.87c5.69,2.99,14.09,4.88,25.17,5.69,11.38.81,22.61,1.22,33.71,1.22,15.15,0,28.42-.81,39.79-2.44,11.63-1.35,20.57-4.34,26.8-8.96,6.49-4.34,9.75-10.99,9.75-19.95,0-7.59-3.39-13.84-10.15-18.73-6.5-4.61-16.38-6.92-29.65-6.92-14.62,0-25.31,2.44-32.08,7.33-6.49,4.88-10.15,11.67-10.97,20.36h-46.29c.54-17.65,7.99-31.62,22.33-41.94,14.62-10.31,33.57-15.46,56.85-15.46,16.51,0,30.45,2.99,41.81,8.96,11.38,5.96,20.04,13.97,26,24.01,5.95,10.31,8.92,21.84,8.92,34.6,0,13.58-2.16,24.3-6.49,32.17-4.33,8.14-9.34,14.52-15.02,19.13-8.67,7.6-20.3,12.35-34.92,14.25-14.62,2.16-30.72,3.25-48.33,3.25s-34.1-1.09-48.72-3.25c-14.62-1.9-26.26-6.65-34.92-14.25-5.68-4.61-10.7-12.08-15.03-22.39-4.33-10.03-6.49-25.77-6.49-47.22v-220.22h26.8c1.63,11.67,9.07,21.03,22.33,28.09,13.54,7.05,31.95,10.58,55.22,10.58,15.43,0,28.97-1.9,40.6-5.69,11.91-3.81,21.26-10.05,28.03-18.73,6.76-8.69,10.15-20.22,10.15-34.6v-4.07c0-14.65-3.39-26.18-10.15-34.6-6.77-8.69-16.12-14.93-28.03-18.73-11.63-3.81-25.17-5.71-40.6-5.71-23.28,0-41.68,3.53-55.22,10.59-13.26,6.78-20.7,16.14-22.33,28.08h-26.8c0-8.41,1.62-17.77,4.87-28.08,3.52-10.59,9.07-20.62,16.65-30.13,7.57-9.5,17.73-17.24,30.45-23.2,13-6.25,29.1-9.37,48.32-9.37h8.13c18.14,0,33.98,3.26,47.51,9.77,13.54,6.25,24.5,14.8,32.89,25.65,7.58,9.49,13,20.62,16.24,33.38,3.25,12.75,4.87,27.54,4.87,44.37s-1.62,31.61-4.87,44.38c-3.24,12.75-8.66,23.88-16.24,33.38-8.39,10.86-19.35,19.54-32.89,26.05-13.53,6.24-29.37,9.36-47.51,9.36h-9.34c-14.07,0-26.94-2.03-38.58-6.1-11.63-4.07-21.79-9.9-30.45-17.5v142.88c0,21.17,5.95,34.74,17.86,40.71Z"/>
  <path class="cls-1" d="M597.66,281.22h8.12c18.14,0,33.97,3.26,47.51,9.77,13.54,6.24,24.5,14.79,32.89,25.65,7.58,9.5,12.99,20.62,16.24,33.38,3.25,12.75,4.87,27.54,4.87,44.37s-1.62,31.62-4.87,44.37c-3.25,12.76-8.66,23.88-16.24,33.38-8.39,10.86-19.36,19.54-32.89,26.05-13.54,6.24-29.37,9.36-47.51,9.36h-8.12c-18.14,0-33.97-3.12-47.51-9.36-13.54-6.51-24.5-15.2-32.89-26.05-7.58-9.5-12.99-20.62-16.24-33.38-3.25-12.76-4.87-27.55-4.87-44.37s1.62-31.62,4.87-44.37c3.25-12.75,8.66-23.88,16.24-33.38,8.39-10.86,19.36-19.4,32.89-25.65,13.54-6.51,29.37-9.77,47.51-9.77ZM557.46,437.12c-11.37,0-20.84-.81-28.42-2.44,6.77,8.96,16.24,15.47,28.42,19.54,12.18,3.8,26.12,5.7,41.82,5.7s30.05-2.04,42.23-6.11c12.18-4.07,21.66-10.72,28.42-19.95,7.04-9.5,10.56-21.98,10.56-37.45v-4.07c0-15.74-3.52-28.22-10.56-37.45-6.77-9.23-16.24-15.88-28.42-19.95-12.18-4.07-26.26-6.11-42.23-6.11s-29.64,2.04-41.82,6.11c-12.18,3.8-21.66,10.18-28.42,19.13,7.58-1.63,17.05-2.44,28.42-2.44,25.72,0,43.72,3.53,54,10.58,10.29,7.06,15.43,17.78,15.43,32.16,0,15.47-5.14,26.46-15.43,32.97-10.29,6.51-28.29,9.77-54,9.77ZM553.8,413.92c12.72,0,21.52-1.76,26.39-5.29,5.14-3.53,7.72-8.55,7.72-15.06,0-5.97-2.57-10.58-7.72-13.84-4.87-3.26-13.67-4.88-26.39-4.88s-22.47,1.63-27.61,4.88c-4.87,3.26-7.31,7.87-7.31,13.84,0,6.51,2.44,11.53,7.31,15.06,5.14,3.53,14.35,5.29,27.61,5.29Z"/>
  <path class="cls-1" d="M598.83,529.12h7.31c15.97,0,29.91,2.71,41.82,8.14,11.91,5.43,21.52,12.76,28.83,21.98,6.77,8.41,11.64,18.05,14.62,28.9,2.71,11.13,4.06,23.88,4.06,38.26s-1.35,27.41-4.06,38.27c-2.98,11.13-7.85,20.9-14.62,29.31-7.31,9.23-16.92,16.55-28.83,21.98-11.91,5.43-25.85,8.14-41.82,8.14h-7.31c-15.7,0-29.51-2.71-41.42-8.14-12.18-5.43-21.93-12.75-29.24-21.98-6.77-8.41-11.51-18.18-14.21-29.31-2.98-10.86-4.47-23.61-4.47-38.27s1.49-27.14,4.47-38.26c2.71-10.86,7.44-20.49,14.21-28.9,7.31-9.23,17.05-16.55,29.24-21.98,11.91-5.43,25.72-8.14,41.42-8.14ZM600.45,682.59c20.57,0,37.49-4.07,50.76-12.21,12.99-8.14,19.49-22.12,19.49-41.93v-3.66c0-20.08-6.5-34.19-19.49-42.33-13.26-7.87-30.18-11.8-50.76-11.8-13.81,0-26.12,1.63-36.95,4.88-10.83,3.53-19.22,9.09-25.17,16.69,6.77-1.63,15.16-2.44,25.17-2.44,23.01,0,39.12,2.98,48.32,8.96,8.93,5.97,13.4,15.2,13.4,27.68,0,13.3-4.47,22.8-13.4,28.49-9.2,5.7-25.31,8.55-48.32,8.55-10.02,0-18.41-.81-25.17-2.44,5.96,7.6,14.35,13.03,25.17,16.28,10.83,3.53,23.14,5.29,36.95,5.29ZM560.25,643.51c11.37,0,19.22-1.63,23.55-4.89,4.06-2.98,6.09-7.19,6.09-12.62s-2.03-9.23-6.09-12.21c-4.33-2.71-12.18-4.07-23.55-4.07s-19.63,1.36-23.96,4.07c-4.6,2.98-6.9,7.06-6.9,12.21,0,5.43,2.3,9.63,6.9,12.62,4.33,3.26,12.32,4.89,23.96,4.89Z"/>
  <path class="cls-1" d="M679.23,314.6c7.58-9.77,18.14-17.78,31.67-24.02,13.26-6.24,28.96-9.36,47.1-9.36h8.12c18.14,0,33.97,3.26,47.51,9.77,13.53,6.24,24.5,14.79,32.89,25.65,7.58,9.5,12.99,20.62,16.24,33.38,3.25,12.75,4.87,27.54,4.87,44.37s-1.62,31.62-4.87,44.37c-3.25,12.76-8.66,23.88-16.24,33.38-8.39,10.86-19.49,19.54-33.3,26.05-13.81,6.24-30.32,9.36-49.54,9.36-8.93,0-16.65-.41-23.15-1.22v-50.88h21.52c15.43,0,29.1-1.9,41.01-5.7,11.91-3.8,21.12-10.04,27.61-18.72,6.77-8.68,10.15-20.22,10.15-34.6v-4.07c0-14.65-3.38-26.19-10.15-34.6-6.5-8.68-15.7-14.93-27.61-18.73-11.91-3.8-25.58-5.7-41.01-5.7-13.54,0-25.72,1.49-36.54,4.48-10.83,2.71-19.76,7.46-26.8,14.25l-19.49-37.45Z"/>
</svg>